<svg xmlns="http://www.w3.org/2000/svg" xmlns:xlink="http://www.w3.org/1999/xlink" version="1.1" x="0px" y="0px" viewBox="0 0 65 81.25" enable-background="new 0 0 65 65" xml:space="preserve"><g><path d="M44.6,11.5H20.4v19.3h24.3V11.5z M43.1,29.3H21.9V13h21.3V29.3z"/><rect x="26" y="3.4" width="7.8" height="1.5"/><rect x="35" y="3.4" width="1.5" height="1.5"/><path d="M45.2,0H19.8c-2,0-3.7,1.7-3.7,3.7v43.5c0,2,1.7,3.7,3.7,3.7h3.6v1.7v0.2h0c0.1,1.8,1,3.4,2.4,4.4c0.8,0.5,1.2,1.4,1.2,2.4   v0.9c0,0-0.1,0.1-0.1,0.1c-0.4,0.4-0.6,1-0.6,1.7c0,0.5,0.1,0.8,0.1,1.1c0,0.4,0.1,0.8,0.1,1.6l1.5,0c0-0.9,0-1.2-0.1-1.7   c0-0.3,0-0.6-0.1-1.1c0-0.2,0-0.4,0.2-0.5c0.1-0.1,0.2-0.1,0.3-0.1h11.1c0.1,0,0.2,0,0.3,0.1c0.1,0.1,0.2,0.3,0.2,0.5   c-0.1,0.9-0.1,1.1-0.1,1.2c0,0.3-0.1,0.4-0.1,1.6l1.5,0c0-1,0-1.1,0-1.3c0-0.2,0.1-0.5,0.1-1.4c0-0.5-0.1-1.1-0.4-1.5h0   c0-0.3,0.1-1.4,0.4-2c0.1-0.2,0.2-0.3,0.3-0.5c0.5-0.8,1-1.7,1.5-3.6c0.2-1,0.3-2.5,0.2-3.8h2c2,0,3.7-1.7,3.7-3.7V3.7   C48.9,1.7,47.3,0,45.2,0z M19.8,1.5h25.4c1.2,0,2.2,1,2.2,2.2v2.9H17.6V3.7C17.6,2.5,18.6,1.5,19.8,1.5z M19.8,49.4   c-1.2,0-2.2-1-2.2-2.2v-3.1H27v1.2c-0.3-0.2-0.7-0.2-1.1-0.2c-1.4,0-2.6,1.2-2.6,2.6v0.1v1.6H19.8z M41.5,54.4   c-0.4,1.6-0.8,2.4-1.3,3.2c-0.1,0.2-0.2,0.4-0.3,0.5c-0.3,0.6-0.5,1.4-0.6,1.9c0,0,0,0,0,0H28.5v-0.4c0-1.4-0.7-2.8-1.9-3.6   c-1.1-0.8-1.8-2.1-1.8-3.4v-4.8v-0.1c0-0.6,0.5-1.1,1.1-1.1c0.6,0,1.1,0.5,1.1,1.1v2.8h1.5v-2.8c0-0.1,0-0.3,0-0.4h0V36.5   c0-0.6,0.5-1.1,1.1-1.1c0.6,0,1.1,0.5,1.1,1.1v4.9v4.1v1.7h1.5v-1.7v-4.1c0-0.6,0.5-1.1,1.1-1.1c0.6,0,1.1,0.5,1.1,1.1v0.8v3.3v1.5   h1.5v-1.5v-3.3c0-0.6,0.5-1.1,1.1-1.1c0.6,0,1.1,0.5,1.1,1.1v1.6v3.2v1.2h1.5v-1.2v-3.2c0-0.6,0.5-1.1,1.1-1.1   c0.6,0,1.1,0.5,1.1,1.1v4.3h0.2l-0.2,0C41.6,48.3,41.9,52.6,41.5,54.4z M40.5,41.3c-0.4,0-0.8,0.1-1.2,0.3   c-0.3-1.1-1.3-1.9-2.5-1.9c-0.5,0-1,0.2-1.5,0.5c-0.5-0.7-1.3-1.2-2.2-1.2c-0.4,0-0.7,0.1-1.1,0.2v-2.6c0-1.4-1.2-2.6-2.6-2.6   c-1.4,0-2.6,1.2-2.6,2.6v6.1h-9.4V8.1h29.8v34.5h-4.7C42.3,41.9,41.5,41.3,40.5,41.3z M45.2,49.4h-2c0-0.7-0.1-1.1-0.1-1.3v-4h4.3   v3.1C47.4,48.4,46.4,49.4,45.2,49.4z"/><path d="M31.3,24.2c-0.3-0.3-0.5-0.6-0.5-0.9h-1.5c0,0.8,0.3,1.5,1,2.1c0.4,0.4,0.9,0.6,1.5,0.7v1.5h1.5V26   c0.5-0.1,1.1-0.4,1.5-0.7c0.6-0.5,1-1.3,1-2.1c0-0.8-0.3-1.5-1-2.1c-0.6-0.5-1.4-0.8-2.2-0.8c-0.5,0-0.9-0.2-1.2-0.4   c-0.3-0.3-0.5-0.6-0.5-0.9c0-0.3,0.2-0.7,0.5-0.9c0.6-0.6,1.8-0.6,2.5,0c0.3,0.3,0.5,0.6,0.5,0.9h1.5c0-0.8-0.3-1.5-1-2.1   c-0.4-0.4-0.9-0.6-1.5-0.7v-1.6h-1.5v1.6c-0.5,0.1-1.1,0.3-1.5,0.7c-0.6,0.5-1,1.3-1,2.1c0,0.8,0.3,1.5,1,2.1   c0.6,0.5,1.4,0.8,2.2,0.8c0.5,0,0.9,0.2,1.2,0.4c0.3,0.3,0.5,0.6,0.5,0.9c0,0.3-0.2,0.7-0.5,0.9C33.1,24.7,31.9,24.7,31.3,24.2z"/></g><text x="0" y="80" fill="#000000" font-size="5px" font-weight="bold" font-family="'Helvetica Neue', Helvetica, Arial-Unicode, Arial, Sans-serif">Created by Creative Stall</text><text x="0" y="85" fill="#000000" font-size="5px" font-weight="bold" font-family="'Helvetica Neue', Helvetica, Arial-Unicode, Arial, Sans-serif">from the Noun Project</text></svg>